<svg width="49" height="51" viewBox="0 0 49 51" fill="none" xmlns="http://www.w3.org/2000/svg">
<g clip-path="url(#clip0_1_224)">
<path fill-rule="evenodd" clip-rule="evenodd" d="M44.3906 16.7949L42.7566 18.4289C39.2162 15.343 34.6766 13.617 29.9566 13.617C26.7787 13.617 23.6026 14.434 20.8792 15.8859L27.7779 8.98722C28.3226 9.34977 28.9575 9.5319 29.5941 9.5319C30.5013 9.5319 31.4102 9.16935 32.1353 8.44254C33.5872 6.99063 33.5872 4.71999 32.1353 3.26807C31.4085 2.54126 30.5013 2.17871 29.5941 2.17871C28.6868 2.17871 27.7779 2.54126 27.0528 3.26807C25.8732 4.53956 25.6911 6.35403 26.5081 7.71573L17.7932 16.4306L16.1592 14.7966L11.7115 19.2442L13.3455 20.8783L4.44852 29.7753C3.90384 29.4128 3.26894 29.2306 2.63235 29.2306C1.72512 29.2306 0.816179 29.5932 0.0910724 30.32C-1.36084 31.7719 -1.36084 34.0425 0.0910724 35.4945C0.817881 36.1294 1.72512 36.4936 2.63235 36.4936C3.53958 36.4936 4.44852 36.1311 5.17363 35.4042C6.3532 34.2247 6.53533 32.4085 5.71831 30.9566L12.617 24.0579C8.98639 31.0485 9.80341 39.7634 15.1583 45.9353L13.5243 47.6596L18.0638 52.1072L22.5115 47.6596L18.0638 43.2119L16.52 44.7557C11.2553 38.5821 10.983 29.6868 15.4306 23.1506L16.1575 23.8774L20.697 19.4298L19.88 18.703C22.7855 16.6145 26.326 15.5251 29.9566 15.5251C34.2238 15.5251 38.217 17.0689 41.4851 19.7923L39.8511 21.3362L44.3906 25.7838L48.8383 21.3362L44.3906 16.7966V16.7949ZM19.9702 47.6596L18.0638 49.5659L16.1575 47.6596L18.0638 45.7532L19.9702 47.6596ZM28.3226 4.62977C28.6851 4.26722 29.1396 4.08509 29.5941 4.08509C30.0485 4.08509 30.5013 4.26722 30.8655 4.62977C31.5924 5.35658 31.5924 6.44595 30.8655 7.17105C30.503 7.5336 30.0485 7.71573 29.5941 7.71573C29.1396 7.71573 28.6868 7.5336 28.3226 7.17105C27.5958 6.53616 27.5958 5.35488 28.3226 4.62977ZM3.90214 34.1328C3.53958 34.4953 3.08511 34.6774 2.63065 34.6774C2.17618 34.6774 1.72341 34.4953 1.35916 34.1328C0.996604 33.8604 0.814477 33.4059 0.814477 32.8613C0.814477 32.4068 0.996604 31.954 1.35916 31.5898C1.72171 31.2255 2.17618 31.0451 2.63065 31.0451C3.08511 31.0451 3.53788 31.2272 3.90214 31.5898C4.62894 32.3166 4.62894 33.4962 3.90214 34.1311V34.1328ZM16.0672 21.3328L14.1609 19.4264L16.0672 17.52L17.9736 19.4264L16.0672 21.3328ZM44.3906 23.2391L42.4843 21.3328L44.3906 19.4264L46.297 21.3328L44.3906 23.2391Z" fill="#333333"/>
</g>
<defs>
<clipPath id="clip0_1_224">
<rect width="50" height="51" fill="white" transform="translate(-1)"/>
</clipPath>
</defs>
</svg>
